<svg width="96" height="28" viewBox="0 0 96 28" fill="none" xmlns="http://www.w3.org/2000/svg">
<path d="M91.3176 24.5072C90.495 24.5072 89.6977 24.3806 88.9258 24.1275C88.1664 23.8618 87.5147 23.4378 86.9705 22.8557C86.4263 22.2609 86.0973 21.4952 85.9834 20.5587H89.0776C89.2422 21.0649 89.5269 21.4509 89.9319 21.7167C90.3368 21.9698 90.7861 22.0963 91.2797 22.0963C91.7226 22.0963 92.0833 22.0078 92.3617 21.8306C92.6528 21.6534 92.7983 21.4193 92.7983 21.1282C92.7983 20.7992 92.6211 20.5587 92.2668 20.4069C91.9124 20.255 91.3493 20.1031 90.5773 19.9513C89.7294 19.7867 89.027 19.6096 88.4702 19.4197C87.9133 19.2172 87.4324 18.8882 87.0275 18.4326C86.6225 17.977 86.42 17.3569 86.42 16.5723C86.42 15.4586 86.8313 14.636 87.6539 14.1045C88.4765 13.5603 89.5079 13.2882 90.7481 13.2882C92.077 13.2882 93.178 13.6236 94.0512 14.2943C94.9371 14.9524 95.4812 15.8826 95.6837 17.0848H92.6654C92.5262 16.6039 92.2794 16.2496 91.9251 16.0218C91.5707 15.794 91.1721 15.6801 90.7292 15.6801C90.3368 15.6801 90.0205 15.756 89.78 15.9079C89.5522 16.0597 89.4383 16.2559 89.4383 16.4963C89.4383 16.8254 89.6155 17.0658 89.9698 17.2177C90.3368 17.3569 90.9127 17.4961 91.6973 17.6353C92.5579 17.7872 93.2729 17.958 93.8424 18.1479C94.4119 18.3377 94.8991 18.6541 95.3041 19.097C95.7217 19.54 95.9305 20.1474 95.9305 20.9194C95.9305 21.6281 95.7407 22.2545 95.361 22.7987C94.994 23.3429 94.4625 23.7669 93.7664 24.0706C93.0704 24.3617 92.2541 24.5072 91.3176 24.5072Z" fill="#0D1B2A"/>
<path d="M79.206 24.5072C77.4342 24.5072 76.2763 23.8871 75.7321 22.6468C75.5422 22.2292 75.422 21.8116 75.3714 21.394C75.3334 20.9637 75.3145 20.3436 75.3145 19.5336V13.516H78.5036V19.5716C78.5036 20.1031 78.5352 20.5207 78.5985 20.8245C78.6744 21.1282 78.7947 21.3686 78.9592 21.5458C79.2123 21.8116 79.6046 21.9445 80.1361 21.9445C80.7942 21.9445 81.2688 21.761 81.5599 21.394C81.8256 21.0269 81.9585 20.4195 81.9585 19.5716V13.516H85.1477V24.2794H81.9585V24.1655C81.9585 23.963 81.9775 23.7921 82.0155 23.6529C82.0661 23.5137 82.1547 23.3682 82.2812 23.2163L82.0155 23.0265C81.6611 23.5833 81.2625 23.9693 80.8195 24.1845C80.3766 24.3996 79.8387 24.5072 79.206 24.5072Z" fill="#0D1B2A"/>
<path d="M69.7635 13.2882C70.6747 13.2882 71.4846 13.5287 72.1933 14.0096C72.902 14.4778 73.4525 15.1422 73.8448 16.0028C74.2498 16.8507 74.4523 17.8188 74.4523 18.9072C74.4523 19.9829 74.2498 20.951 73.8448 21.8116C73.4525 22.6595 72.902 23.3239 72.1933 23.8048C71.4846 24.2731 70.6747 24.5072 69.7635 24.5072C69.1307 24.5072 68.5928 24.3996 68.1499 24.1845C67.707 23.9693 67.3083 23.5833 66.954 23.0265L66.6882 23.2163C66.8148 23.3682 66.897 23.5137 66.935 23.653C66.9856 23.7922 67.0109 23.963 67.0109 24.1655V28.0001H63.8218V13.516H67.0109V13.6299C67.0109 13.8324 66.9856 14.0032 66.935 14.1424C66.897 14.2817 66.8148 14.4272 66.6882 14.5791L66.954 14.7689C67.3083 14.2121 67.707 13.8261 68.1499 13.6109C68.5928 13.3958 69.1307 13.2882 69.7635 13.2882ZM68.8713 16.0028C68.1626 16.0028 67.5931 16.2685 67.1628 16.8001C66.7325 17.3316 66.5174 18.034 66.5174 18.9072C66.5174 19.7678 66.7325 20.4638 67.1628 20.9953C67.5931 21.5269 68.1626 21.7926 68.8713 21.7926C69.58 21.7926 70.1495 21.5269 70.5797 20.9953C71.01 20.4511 71.2252 19.7551 71.2252 18.9072C71.2252 18.0466 71.01 17.3506 70.5797 16.8191C70.1495 16.2749 69.58 16.0028 68.8713 16.0028Z" fill="#0D1B2A"/>
<path d="M58.1946 13.2882C59.1058 13.2882 59.9158 13.5287 60.6245 14.0096C61.3332 14.4778 61.8837 15.1422 62.276 16.0028C62.681 16.8507 62.8834 17.8188 62.8834 18.9072C62.8834 19.9829 62.681 20.951 62.276 21.8116C61.8837 22.6595 61.3332 23.3239 60.6245 23.8048C59.9158 24.2731 59.1058 24.5072 58.1946 24.5072C57.5619 24.5072 57.024 24.3996 56.5811 24.1845C56.1381 23.9693 55.7395 23.5833 55.3851 23.0265L55.1194 23.2163C55.2459 23.3682 55.3282 23.5137 55.3661 23.653C55.4168 23.7922 55.4421 23.963 55.4421 24.1655V28.0001H52.2529V13.516H55.4421V13.6299C55.4421 13.8324 55.4168 14.0032 55.3661 14.1424C55.3282 14.2817 55.2459 14.4272 55.1194 14.5791L55.3851 14.7689C55.7395 14.2121 56.1381 13.8261 56.5811 13.6109C57.024 13.3958 57.5619 13.2882 58.1946 13.2882ZM57.3024 16.0028C56.5937 16.0028 56.0242 16.2685 55.5939 16.8001C55.1637 17.3316 54.9485 18.034 54.9485 18.9072C54.9485 19.7678 55.1637 20.4638 55.5939 20.9953C56.0242 21.5269 56.5937 21.7926 57.3024 21.7926C58.0111 21.7926 58.5806 21.5269 59.0109 20.9953C59.4412 20.4511 59.6563 19.7551 59.6563 18.9072C59.6563 18.0466 59.4412 17.3506 59.0109 16.8191C58.5806 16.2749 58.0111 16.0028 57.3024 16.0028Z" fill="#0D1B2A"/>
<path d="M50.9185 24.2794H47.7293V13.516H50.9185V24.2794ZM49.3239 12.7756C48.8177 12.7756 48.3874 12.6301 48.033 12.339C47.6914 12.0353 47.5205 11.6367 47.5205 11.1431C47.5205 10.6495 47.6914 10.2509 48.033 9.94717C48.3874 9.64344 48.8177 9.49158 49.3239 9.49158C49.8301 9.49158 50.2541 9.64344 50.5958 9.94717C50.9501 10.2509 51.1273 10.6495 51.1273 11.1431C51.1273 11.6367 50.9501 12.0353 50.5958 12.339C50.2541 12.6301 49.8301 12.7756 49.3239 12.7756Z" fill="#0D1B2A"/>
<path d="M44.856 24.2794C44.0713 24.2794 43.4639 24.0958 43.0336 23.7288C42.6033 23.3492 42.3882 22.8177 42.3882 22.1343V9.79529H45.5773V21.0333C45.5773 21.4762 45.7862 21.6977 46.2038 21.6977H47.0011V24.2794H44.856Z" fill="#0D1B2A"/>
<path d="M39.5718 24.2794C38.7872 24.2794 38.1797 24.0958 37.7494 23.7288C37.3191 23.3492 37.104 22.8177 37.104 22.1343V9.79529H40.2932V21.0333C40.2932 21.4762 40.502 21.6977 40.9196 21.6977H41.7169V24.2794H39.5718Z" fill="#0D1B2A"/>
<path d="M29.6324 24.5072C28.6073 24.5072 27.7594 24.2288 27.0887 23.6719C26.4306 23.1024 26.1016 22.2988 26.1016 21.2611C26.1016 20.1221 26.5508 19.2552 27.4494 18.6604C27.7911 18.4453 28.1644 18.2744 28.5694 18.1479C28.987 18.0213 29.4616 17.9074 29.9931 17.8062L32.7836 17.3126C32.7456 16.7684 32.6001 16.3508 32.347 16.0597C32.1065 15.8066 31.7459 15.6801 31.265 15.6801C30.8853 15.6801 30.5436 15.8066 30.2399 16.0597C29.9361 16.3128 29.7463 16.6609 29.6704 17.1038H26.5002C26.6268 16.2432 26.9242 15.5282 27.3924 14.9587C27.8733 14.3892 28.4491 13.9716 29.1199 13.7058C29.8033 13.4274 30.5246 13.2882 31.2839 13.2882C31.942 13.2882 32.5558 13.3768 33.1253 13.554C33.7074 13.7311 34.2073 13.9969 34.625 14.3513C35.0426 14.7056 35.3463 15.1232 35.5361 15.6041C35.726 16.085 35.8399 16.5849 35.8778 17.1038C35.9285 17.6227 35.9538 18.3124 35.9538 19.173V24.2794H32.7646V24.1085C32.7646 23.7795 32.8595 23.4568 33.0494 23.1404L32.7646 22.9696C32.6127 23.3619 32.3533 23.6909 31.9863 23.9567C31.4421 24.3237 30.6575 24.5072 29.6324 24.5072ZM30.5626 22.0963C30.9422 22.0963 31.3282 22.0078 31.7205 21.8306C32.0369 21.6914 32.2711 21.5142 32.4229 21.2991C32.5874 21.0966 32.7266 20.7359 32.8405 20.217C32.8659 20.0905 32.9038 19.9956 32.9544 19.9323C33.0051 19.869 33.0873 19.831 33.2012 19.8184L33.1443 19.5146L31.5117 19.8374L30.8853 19.9513C30.5309 20.0145 30.2525 20.0841 30.05 20.1601C29.8602 20.236 29.702 20.3372 29.5755 20.4638C29.3856 20.6536 29.2907 20.8814 29.2907 21.1472C29.2907 21.4636 29.4109 21.704 29.6514 21.8685C29.8918 22.0204 30.1956 22.0963 30.5626 22.0963Z" fill="#0D1B2A"/>
<path d="M18.7842 8.97423H20.3928C20.9032 8.97423 21.3209 9.39352 21.3209 9.90545V11.5203C21.3209 12.0327 20.9032 12.4515 20.3928 12.4515H18.7842C18.2737 12.4515 17.8564 12.0327 17.8564 11.5203V9.90545C17.8564 9.39352 18.2737 8.97423 18.7842 8.97423ZM10.5484 0.0815324H13.0671C13.8658 0.0815324 14.5196 0.737663 14.5196 1.5395V4.06733C14.5196 4.86917 13.8658 5.52513 13.0671 5.52513H10.5484C9.74916 5.52513 9.09545 4.86917 9.09545 4.06733V1.5395C9.09545 0.737664 9.74916 0.0815324 10.5484 0.0815324ZM8.78813 11.0319H16.4473C16.7722 11.0319 17.0381 10.7649 17.0381 10.4388V10.1121V9.0812C17.0381 8.51385 17.5006 8.04976 18.0657 8.04976H22.3737C22.994 8.04976 23.5018 7.54035 23.5018 6.91758V1.13218C23.5018 0.509409 22.994 0 22.3737 0H16.8122C16.1919 0 15.6842 0.509409 15.6842 1.13218V5.59689C15.6842 6.16408 15.2218 6.62817 14.6565 6.62817H13.6294H8.51929C3.83365 6.62817 0 10.476 0 15.1786C0 19.8815 3.83365 23.7288 8.51929 23.7288H15.6019C16.3921 23.7288 17.0381 23.0803 17.0381 22.2872V19.9187C17.0381 19.5921 16.7722 19.3257 16.4473 19.3257H8.78813C6.51549 19.3257 4.65623 17.4596 4.65623 15.1786C4.65623 12.8979 6.51549 11.0319 8.78813 11.0319Z" fill="url(#paint0_linear_94_496)"/>
<defs>
<linearGradient id="paint0_linear_94_496" x1="11.7509" y1="0" x2="11.7509" y2="23.7288" gradientUnits="userSpaceOnUse">
<stop stop-color="#007BFF"/>
<stop offset="1" stop-color="#1E90FF"/>
</linearGradient>
</defs>
</svg>
